. 
  
http://www.torrenting.com/        :     Greatest Movie Tracker on The Net!!!
 
http://www.Torrenting.com          :     Once & For all ;)


               www . Torrenting . Com 

(((((((((((((= Enjoy No RAR releases =))))))))))))))))))))


...................................NFO:....................................

.








































          
          
              
              
                    
                    
                    
                    

The.Hills.Have.Eyes.UNRATED.1996.720p.BRRip.Xvid.AC3-SiC

Poster:
[img]http://img844.imageshack.us/img844/572/x500sy500lb.jpg[/img]

IMDB Link:
http://www.imdb.com/title/tt0454841/

Description:
A suburban American family is being stalked by a group of psychotic people who 
live in the desert, far away from civilization. 

MediaInfo:
General
Complete name                    : The.Hills.Have.Eyes.UNRATED.1996.720p.BRRip.Xvid.AC3-SiC.avi
Format                           : AVI
Format/Info                      : Audio Video Interleave
Format profile                   : OpenDML
File size                        : 1.99 GiB
Duration                         : 1h 48mn
Overall bit rate                 : 2 632 Kbps

Video
ID                               : 0
Format                           : MPEG-4 Visual
Format profile                   : Advanced Simple@L5
Format settings, BVOP            : Yes
Format settings, QPel            : No
Format settings, GMC             : No warppoints
Format settings, Matrix          : Default (H.263)
Muxing mode                      : Packed bitstream
Codec ID                         : XVID
Codec ID/Hint                    : XviD
Duration                         : 1h 48mn
Bit rate                         : 2 242 Kbps
Width                            : 1 280 pixels
Height                           : 544 pixels
Display aspect ratio             : 2.35:1
Frame rate                       : 23.976 fps
Resolution                       : 8 bits
Colorimetry                      : 4:2:0
Scan type                        : Progressive
Bits/(Pixel*Frame)               : 0.134
Stream size                      : 1.70 GiB (85%)
Writing library                  : XviD 64

Audio
ID                               : 1
Format                           : AC-3
Format/Info                      : Audio Coding 3
Format_Settings_ModeExtension    : CM (complete main)
Codec ID                         : 2000
Duration                         : 1h 48mn
Bit rate mode                    : Constant
Bit rate                         : 384 Kbps
Channel(s)                       : 6 channels
Channel positions                : Front: L C R, Side: L R, LFE
Sampling rate                    : 48.0 KHz
Stream size                      : 298 MiB (15%)
Alignment                        : Aligned on interleaves
Interleave, duration             : 64 ms (1.53 video frames)
Interleave, preload duration     : 192 ms
Title                            : 6ch English

Screenshots:
[img]http://img846.imageshack.us/img846/5591/thehillshaveeyesavisnap.png[/img]
[img]http://img8.imageshack.us/img8/3952/thehillshaveeyes1996brr.png[/img]
[img]http://img97.imageshack.us/img97/5591/thehillshaveeyesavisnap.png[/img]
[img]http://img847.imageshack.us/img847/5591/thehillshaveeyesavisnap.png[/img]
[img]http://img62.imageshack.us/img62/7903/vlcsnap2011081817h17m21.png[/img]

Note :   N/A

Source : BluRay-DON Thanks!!!

Encoder: Bezauk

Enjoy!

Respects to CaptainHomey, Cyanide, CM8, Rx, THC, ELEKTRI4KA, 
Killerhz, PA, YeFsTe, BoxSlots, MrRep and everyone in the struggle...